<svg width="400" height="400" xmlns="http://www.w3.org/2000/svg" xmlns:xlink="http://www.w3.org/1999/xlink" overflow="hidden"><g><rect x="0" y="0" width="400" height="400" fill="#FFFFFF" fill-opacity="0"/><path d="M200 0C143.817 47.7667 108.6 50 50 50L50 242.25C50 318.967 103.383 338.983 200 400 296.617 338.983 350 318.967 350 242.25L350 50C291.4 50 256.183 47.7667 200 0Z" fill="#7030A0"/><path d="M193 14 200 8 207 14Z" fill="#FFFFFF" fill-rule="evenodd"/><g><g><g><path d="M200 11C146.907 56.1395 113.627 58.25 58.25 58.25L58.25 239.926C58.25 312.424 108.697 331.339 200 389 291.303 331.339 341.75 312.424 341.75 239.926L341.75 58.25C286.373 58.25 253.093 56.1395 200 11Z" stroke="#FFFFFF" stroke-width="4.66666" fill="#7030A0"/></g></g></g><g><g><g><path d="M185 196C185 187.72 191.72 181 200 181 208.28 181 215 187.72 215 196 215 201.535 211.97 206.32 207.5 208.923L207.5 226 192.5 226 192.5 208.923C188.03 206.32 185 201.535 185 196ZM267.5 151 267.5 256 132.5 256 132.5 151 155 151 155 121C155 96.1525 175.152 76 200 76 224.848 76 245 96.1525 245 121L245 151 267.5 151ZM170 151 230 151 230 121C230 104.455 216.538 91 200 91 183.462 91 170 104.455 170 121L170 151ZM252.5 166 147.5 166 147.5 241 252.5 241 252.5 166Z" fill="#FFFFFF"/></g></g></g><text fill="#FFFFFF" font-family="Libre Baskerville,Libre Baskerville_MSFontService,sans-serif" font-weight="400" font-size="64" transform="translate(105.25 321)">BNSS</text><path d="M207 387 200 393 193 387Z" fill="#FFFFFF" fill-rule="evenodd"/></g></svg>